<mxfile host="app.diagrams.net" modified="2024-06-18T05:53:35.284Z" agent="Mozilla/5.0 (Windows NT 10.0; Win64; x64) AppleWebKit/537.36 (KHTML, like Gecko) Chrome/126.0.0.0 Safari/537.36 Edg/126.0.0.0" version="23.1.2" etag="Is2K-LtwMJoBVMuEFC1_" type="github">
  <diagram name="第 1 页" id="vLc0xCY4ffPzROZ4LiRZ">
    <mxGraphModel>
      <root>
        <mxCell id="0" />
        <mxCell id="1" parent="0" />
      </root>
    </mxGraphModel>
  </diagram>
</mxfile>
